# xmcd
#
# Track frame offsets: 
#        150
#        18029
#        38184
#        53097
#        69317
#        85190
#        102400
#        119643
#        140052
#        161351
#        179170
#        200116
#        216604
#        234135
#        256076
#        275397
#
# Disc length: 3908 seconds
#
# Revision: 2
# Processed by: cddbd v1.5.2PL0 Copyright (c) Steve Scherf et al.
# Submitted via: ExactAudioCopy v0.95b3
#
DISCID=e80f4210
DTITLE=Various Artist - Country Heat AllStars
DYEAR=2004
DGENRE=Country
TTITLE0=Chattahoochee - Alan Jackson
TTITLE1=Amazed - Lonestar
TTITLE2=Boot Scootin' Boogie - Brooks and Dunn
TTITLE3=A Broken Wing - Martina Mc Bride
TTITLE4=No Shoes No Shirt No Problems - Kenny Chesney
TTITLE5=Beautiful Mess - Diamond Rio
TTITLE6=Complicated - Carolyn Dawn Johnson
TTITLE7=But for the Grace of God - Keith Urban
TTITLE8=He Didn't Have to Be - Brad Paisley
TTITLE9=I Could Not Ask for More - Sara Evans
TTITLE10=Something in Red - Lorrie Morgan
TTITLE11=Mountain Music - Alabama
TTITLE12=Nothin' but the Taillights - Clint Black
TTITLE13=Strawberry Wine - Deana Carter
TTITLE14=Daddy Won't Sell the Farm - Montgomery Gentry
TTITLE15=Take it Like a Man - Michelle Wright
EXTD=
EXTT0=
EXTT1=
EXTT2=
EXTT3=
EXTT4=
EXTT5=
EXTT6=
EXTT7=
EXTT8=
EXTT9=
EXTT10=
EXTT11=
EXTT12=
EXTT13=
EXTT14=
EXTT15=
PLAYORDER=
